<?xml version="1.0" encoding="UTF-8" standalone="no"?>
<svg
   class="ionicon"
   viewBox="0 0 512 512"
   version="1.1"
   id="svg1"
   sodipodi:docname="logo-whatsapp.svg"
   inkscape:version="1.3.2 (091e20e, 2023-11-25, custom)"
   inkscape:export-filename="logo-whatsapp.webp"
   inkscape:export-xdpi="96"
   inkscape:export-ydpi="96"
   xmlns:inkscape="http://www.inkscape.org/namespaces/inkscape"
   xmlns:sodipodi="http://sodipodi.sourceforge.net/DTD/sodipodi-0.dtd"
   xmlns="http://www.w3.org/2000/svg"
   xmlns:svg="http://www.w3.org/2000/svg">
  <defs
     id="defs1" />
  <sodipodi:namedview
     id="namedview1"
     pagecolor="#808080"
     bordercolor="#000000"
     borderopacity="0.25"
     inkscape:showpageshadow="2"
     inkscape:pageopacity="0.0"
     inkscape:pagecheckerboard="true"
     inkscape:deskcolor="#d1d1d1"
     inkscape:zoom="0.22131614"
     inkscape:cx="-234.95801"
     inkscape:cy="494.76736"
     inkscape:window-width="1600"
     inkscape:window-height="837"
     inkscape:window-x="-8"
     inkscape:window-y="-8"
     inkscape:window-maximized="1"
     inkscape:current-layer="svg1" />
  <ellipse
     style="fill:#ffffff;fill-opacity:0;stroke:#ffffff;stroke-width:24.7222;stroke-dasharray:none;stroke-opacity:1"
     id="path3-5"
     cx="255.99997"
     cy="255.99998"
     rx="243.63887"
     ry="243.63889" />
  <path
     d="M 368.292,137.59434 A 148.75423,148.75413 0 0 0 262.62922,94.000688 c -82.32576,0 -149.3435,66.682892 -149.37699,148.660382 a 147.72967,147.72958 0 0 0 19.94194,74.33018 L 112,394 191.18514,373.32817 a 149.75199,149.7519 0 0 0 71.38382,18.08033 h 0.0603 c 82.31907,0 149.33012,-66.68959 149.3703,-148.66037 A 147.44173,147.44164 0 0 0 368.292,137.59434 Z M 262.62922,366.31703 h -0.0536 a 124.38596,124.38588 0 0 1 -63.1874,-17.22318 l -4.53347,-2.67856 -46.98877,12.26783 12.54239,-45.59588 -2.95312,-4.68749 a 122.85248,122.85241 0 0 1 -18.98431,-65.73868 c 0,-68.12261 55.72089,-123.54883 124.20516,-123.54883 a 123.88373,123.88365 0 0 1 124.10471,123.64258 c -0.0268,68.1293 -55.72089,123.56221 -124.15159,123.56221 z m 68.09588,-92.53772 c -3.72991,-1.8616 -22.09818,-10.84819 -25.49996,-12.08703 -3.40178,-1.23883 -5.91294,-1.8616 -8.39731,1.8616 -2.48437,3.72321 -9.64284,12.05355 -11.81918,14.5647 -2.17633,2.51116 -4.35267,2.78571 -8.08257,0.92411 -3.72991,-1.8616 -15.76337,-5.77901 -30.02005,-18.43523 -11.09596,-9.85042 -18.58256,-22.01111 -20.75889,-25.72762 -2.17634,-3.71651 -0.23438,-5.73213 1.63392,-7.58034 1.68081,-1.66741 3.72991,-4.33928 5.59821,-6.50891 1.8683,-2.16964 2.49107,-3.72321 3.7299,-6.20088 1.23884,-2.47768 0.62277,-4.64731 -0.30803,-6.50222 -0.9308,-1.85491 -8.39731,-20.14281 -11.50445,-27.58253 -3.03347,-7.24552 -6.10713,-6.26114 -8.3973,-6.37498 -2.17634,-0.10715 -4.6875,-0.13393 -7.15847,-0.13393 a 13.747746,13.747737 0 0 0 -9.95088,4.64731 c -3.42187,3.72321 -13.06471,12.72319 -13.06471,30.991 0,18.26782 13.39283,35.94635 15.24104,38.42402 1.84822,2.47768 26.31693,39.99768 63.7566,56.08914 a 216.36796,216.36782 0 0 0 21.28121,7.82142 c 8.93972,2.82588 17.07587,2.43079 23.50443,1.47321 7.17186,-1.06473 22.09818,-8.98659 25.19862,-17.66514 3.10044,-8.67853 3.10714,-16.11155 2.17634,-17.65843 -0.9308,-1.54687 -3.42187,-2.48437 -7.15847,-4.33927 z"
     fill-rule="evenodd"
     id="path1-6"
     style="fill:#ffffff;stroke:none;stroke-width:0.669641" />
</svg>
