<?xml version="1.0" encoding="UTF-8" standalone="no"?>
<svg
   class="ionicon"
   viewBox="0 0 512 512"
   version="1.1"
   id="svg2"
   sodipodi:docname="logo-instagram.svg"
   inkscape:version="1.3.2 (091e20e, 2023-11-25, custom)"
   inkscape:export-filename="logo-instagram.webp"
   inkscape:export-xdpi="96"
   inkscape:export-ydpi="96"
   xmlns:inkscape="http://www.inkscape.org/namespaces/inkscape"
   xmlns:sodipodi="http://sodipodi.sourceforge.net/DTD/sodipodi-0.dtd"
   xmlns="http://www.w3.org/2000/svg"
   xmlns:svg="http://www.w3.org/2000/svg">
  <defs
     id="defs2" />
  <sodipodi:namedview
     id="namedview2"
     pagecolor="#a6a6a6"
     bordercolor="#000000"
     borderopacity="0.25"
     inkscape:showpageshadow="2"
     inkscape:pageopacity="0.0"
     inkscape:pagecheckerboard="true"
     inkscape:deskcolor="#ffffff"
     inkscape:zoom="0.31298828"
     inkscape:cx="230.04056"
     inkscape:cy="634.20905"
     inkscape:window-width="1600"
     inkscape:window-height="837"
     inkscape:window-x="-8"
     inkscape:window-y="-8"
     inkscape:window-maximized="1"
     inkscape:current-layer="svg2" />
  <ellipse
     style="fill:#ffffff;fill-opacity:0;stroke:#ffffff;stroke-width:24.7222;stroke-dasharray:none;stroke-opacity:1"
     id="path3"
     cx="255.99998"
     cy="256"
     rx="243.63887"
     ry="243.63889" />
  <g
     id="g3"
     transform="matrix(0.66964286,0,0,0.66964286,84.571428,84.571428)"
     style="fill:#ffffff">
    <path
       d="m 349.33,69.33 a 93.62,93.62 0 0 1 93.34,93.34 v 186.66 a 93.62,93.62 0 0 1 -93.34,93.34 H 162.67 A 93.62,93.62 0 0 1 69.33,349.33 V 162.67 a 93.62,93.62 0 0 1 93.34,-93.34 h 186.66 m 0,-37.33 H 162.67 C 90.8,32 32,90.8 32,162.67 V 349.33 C 32,421.2 90.8,480 162.67,480 H 349.33 C 421.2,480 480,421.2 480,349.33 V 162.67 C 480,90.8 421.2,32 349.33,32 Z"
       id="path1"
       style="fill:#ffffff" />
    <path
       d="m 377.33,162.67 a 28,28 0 1 1 28,-28 27.94,27.94 0 0 1 -28,28 z M 256,181.33 A 74.67,74.67 0 1 1 181.33,256 74.75,74.75 0 0 1 256,181.33 M 256,144 A 112,112 0 1 0 368,256 112,112 0 0 0 256,144 Z"
       id="path2"
       style="fill:#ffffff" />
  </g>
</svg>
